# Blender 3.6.1
# www.blender.org
mtllib 3plant.mtl
o plant3pixel.001
v -0.312500 -0.021540 0.541266
v 0.312500 -0.021540 -0.541266
v -0.312500 0.978460 0.541266
v 0.312500 0.978460 -0.541266
v 0.625000 -0.021540 -0.000000
v -0.625000 -0.021540 0.000000
v 0.625000 0.978460 -0.000000
v -0.625000 0.978459 0.000000
v -0.312500 -0.021540 -0.541266
v 0.312500 -0.021540 0.541266
v -0.312500 0.978459 -0.541266
v 0.312500 0.978460 0.541266
v -0.541266 -0.021540 -0.312500
v 0.541266 -0.021540 0.312500
v -0.541266 0.978460 -0.312500
v 0.541266 0.978460 0.312500
v -0.000000 -0.021540 0.625000
v -0.000000 -0.021540 -0.625000
v 0.000000 0.978460 0.625000
v -0.000000 0.978459 -0.625000
v 0.541266 -0.021540 -0.312500
v -0.541266 -0.021540 0.312500
v 0.541266 0.978459 -0.312500
v -0.541266 0.978460 0.312500
vn 0.8660 -0.0000 0.5000
vn -0.0000 -0.0000 -1.0000
vn -0.8660 -0.0000 0.5000
vn -0.5000 -0.0000 0.8660
vn 1.0000 -0.0000 -0.0000
vn -0.5000 -0.0000 -0.8660
vt 0.000000 0.000000
vt 1.000000 0.000000
vt 1.000000 1.000000
vt 0.000000 1.000000
s 0
usemtl plant3pixel
f 1/1/1 2/2/1 4/3/1 3/4/1
f 5/1/2 6/2/2 8/3/2 7/4/2
f 9/1/3 10/2/3 12/3/3 11/4/3
f 13/1/4 14/2/4 16/3/4 15/4/4
f 17/1/5 18/2/5 20/3/5 19/4/5
f 21/1/6 22/2/6 24/3/6 23/4/6
