# Blender 3.6.1
# www.blender.org
mtllib bush.mtl
o bushpixel.001
v 0.696880 -0.140258 -0.402344
v -0.696880 -0.140258 0.402344
v 0.696880 0.859742 -0.402344
v -0.696880 0.859742 0.402344
v 0.000000 -0.140258 0.804688
v -0.000000 -0.140258 -0.804688
v 0.000000 0.859742 0.804688
v 0.000000 0.859742 -0.804688
v -0.696880 -0.140258 -0.402344
v 0.696880 -0.140258 0.402344
v -0.696880 0.859742 -0.402344
v 0.696880 0.859742 0.402344
vn -0.5000 -0.0000 -0.8660
vn 1.0000 -0.0000 -0.0000
vn -0.5000 -0.0000 0.8660
vt 0.000000 0.000000
vt 1.000000 0.000000
vt 1.000000 1.000000
vt 0.000000 1.000000
s 0
usemtl bushpixel
f 1/1/1 2/2/1 4/3/1 3/4/1
f 5/1/2 6/2/2 8/3/2 7/4/2
f 9/1/3 10/2/3 12/3/3 11/4/3
o bushpixel.002
v 0.416741 -0.140258 -0.688367
v -0.416741 -0.140258 0.688367
v 0.416741 0.859742 -0.688367
v -0.416741 0.859742 0.688367
v 0.387773 -0.140258 0.705092
v -0.387773 -0.140258 -0.705092
v 0.387773 0.859742 0.705092
v -0.387773 0.859742 -0.705092
v -0.804514 -0.140258 -0.016725
v 0.804514 -0.140258 0.016725
v -0.804514 0.859742 -0.016725
v 0.804514 0.859742 0.016725
vn -0.8554 -0.0000 -0.5179
vn 0.8762 -0.0000 -0.4819
vn -0.0208 -0.0000 0.9998
vt 0.000000 0.000000
vt 1.000000 0.000000
vt 1.000000 1.000000
vt 0.000000 1.000000
s 0
usemtl bushpixel
f 13/5/4 14/6/4 16/7/4 15/8/4
f 17/5/5 18/6/5 20/7/5 19/8/5
f 21/5/6 22/6/6 24/7/6 23/8/6
