# Blender 3.6.1
# www.blender.org
mtllib plant.mtl
o plant.002
v 0.337840 -0.014278 0.195052
v -0.528186 -0.014278 -0.304948
v 0.337840 0.985722 0.195052
v -0.528186 0.985722 -0.304948
v -0.337840 -0.014278 0.195052
v 0.528186 -0.014278 -0.304948
v -0.337840 0.985722 0.195052
v 0.528186 0.985722 -0.304948
v -0.000000 -0.014278 -0.390104
v -0.000000 -0.014278 0.609896
v -0.000000 0.985722 -0.390104
v -0.000000 0.985722 0.609896
v 0.195052 -0.014278 0.337840
v -0.304948 -0.014278 -0.528186
v 0.195052 0.985722 0.337840
v -0.304948 0.985722 -0.528186
v -0.390104 -0.014278 0.000000
v 0.609897 -0.014278 0.000000
v -0.390104 0.985722 0.000000
v 0.609897 0.985722 0.000000
v 0.195052 -0.014278 -0.337840
v -0.304948 -0.014278 0.528186
v 0.195052 0.985722 -0.337840
v -0.304948 0.985722 0.528186
vn 0.5000 -0.0000 -0.8660
vn 0.5000 -0.0000 0.8660
vn -1.0000 -0.0000 -0.0000
vn 0.8660 -0.0000 -0.5000
vn -0.0000 -0.0000 1.0000
vn -0.8660 -0.0000 -0.5000
vt 0.000000 0.000000
vt 1.000000 0.000000
vt 1.000000 1.000000
vt 0.000000 1.000000
s 0
usemtl plant
f 1/1/1 2/2/1 4/3/1 3/4/1
f 5/1/2 6/2/2 8/3/2 7/4/2
f 9/1/3 10/2/3 12/3/3 11/4/3
f 13/1/4 14/2/4 16/3/4 15/4/4
f 17/1/5 18/2/5 20/3/5 19/4/5
f 21/1/6 22/2/6 24/3/6 23/4/6
