# Blender 3.6.1
# www.blender.org
mtllib plant2.mtl
o plant2pixel.002
v 0.343750 0.002377 -0.595392
v -0.343750 0.002377 0.595392
v 0.343750 1.002377 -0.595392
v -0.343750 1.002377 0.595392
v -0.687500 0.002377 0.000000
v 0.687500 0.002377 -0.000000
v -0.687500 1.002377 0.000000
v 0.687500 1.002377 -0.000000
v 0.343750 0.002377 0.595392
v -0.343750 0.002377 -0.595392
v 0.343750 1.002377 0.595392
v -0.343750 1.002377 -0.595392
vn -0.8660 -0.0000 -0.5000
vn -0.0000 -0.0000 1.0000
vn 0.8660 -0.0000 -0.5000
vt 0.000000 0.000000
vt 1.000000 0.000000
vt 1.000000 1.000000
vt 0.000000 1.000000
s 0
usemtl plant2pixel
f 1/1/1 2/2/1 4/3/1 3/4/1
f 5/1/2 6/2/2 8/3/2 7/4/2
f 9/1/3 10/2/3 12/3/3 11/4/3
o plant2pixel.001
v -0.595393 0.002377 -0.343750
v 0.595393 0.002377 0.343750
v -0.595393 1.002377 -0.343750
v 0.595393 1.002377 0.343750
v 0.000000 0.002377 0.687500
v -0.000000 0.002377 -0.687500
v 0.000000 1.002377 0.687500
v -0.000000 1.002377 -0.687500
v 0.595392 0.002377 -0.343750
v -0.595392 0.002377 0.343750
v 0.595392 1.002377 -0.343750
v -0.595392 1.002377 0.343750
vn -0.5000 -0.0000 0.8660
vn 1.0000 -0.0000 -0.0000
vn -0.5000 -0.0000 -0.8660
vt 0.000000 0.000000
vt 1.000000 0.000000
vt 1.000000 1.000000
vt 0.000000 1.000000
s 0
usemtl plant2pixel
f 13/5/4 14/6/4 16/7/4 15/8/4
f 17/5/5 18/6/5 20/7/5 19/8/5
f 21/5/6 22/6/6 24/7/6 23/8/6
